<svg width="41" height="40" viewBox="0 0 41 40" fill="none" xmlns="http://www.w3.org/2000/svg">
<g clip-path="url(#clip0_5219_13430)">
<path d="M10.803 20L6.77099 24.032L2.66699 20L6.77099 15.896L10.803 20ZM20.667 10.136L27.651 17.12L31.755 13.016L20.667 2L9.65099 13.016L13.755 17.12L20.667 10.136ZM34.563 15.896L30.531 20L34.635 24.104L38.667 20L34.563 15.896ZM20.667 29.864L13.683 22.88L9.57899 26.984L20.667 38L31.683 26.984L27.651 22.88L20.667 29.864ZM20.667 24.032L24.771 19.928L20.667 15.896L16.563 20L20.667 24.032Z" fill="#F0B90B"/>
</g>
<defs>
<clipPath id="clip0_5219_13430">
<rect width="36" height="36" fill="white" transform="translate(2.66699 2)"/>
</clipPath>
</defs>
</svg>
