<svg width="40" height="40" viewBox="0 0 40 40" fill="none" xmlns="http://www.w3.org/2000/svg">
<path d="M28.5078 22.9331V12.4121H30.574V22.9331H28.5078Z" fill="#F7A600"/>
<path d="M4.42946 26.0581H0V15.5371H4.25134C6.31752 15.5371 7.52143 16.6897 7.52143 18.4925C7.52143 19.6596 6.74823 20.4137 6.21306 20.6648C6.85186 20.9602 7.66956 21.625 7.66956 23.0295C7.66956 24.9941 6.31752 26.0581 4.42946 26.0581ZM4.0878 17.3698H2.06616V19.7932H4.0878C4.96464 19.7932 5.45526 19.3054 5.45526 18.5811C5.45526 17.8575 4.96464 17.3698 4.0878 17.3698ZM4.22138 21.6403H2.06616V24.2263H4.22138C5.15811 24.2263 5.6034 23.6356 5.6034 22.9257C5.6034 22.2166 5.15729 21.6403 4.22138 21.6403Z" fill="white"/>
<path d="M13.9709 21.7433V26.0581H11.9193V21.7433L8.73828 15.5371H10.9826L12.9597 19.7779L14.9068 15.5371H17.1511L13.9709 21.7433Z" fill="white"/>
<path d="M23.0076 26.0581H18.5781V15.5371H22.8295C24.8956 15.5371 26.0996 16.6897 26.0996 18.4925C26.0996 19.6596 25.3264 20.4137 24.7912 20.6648C25.43 20.9602 26.2477 21.625 26.2477 23.0295C26.2477 24.9941 24.8956 26.0581 23.0076 26.0581ZM22.6659 17.3698H20.6443V19.7932H22.6659C23.5428 19.7932 24.0334 19.3054 24.0334 18.5811C24.0334 17.8575 23.5428 17.3698 22.6659 17.3698ZM22.7995 21.6403H20.6443V24.2263H22.7995C23.7362 24.2263 24.1815 23.6356 24.1815 22.9257C24.1815 22.2166 23.7362 21.6403 22.7995 21.6403Z" fill="white"/>
<path d="M37.2334 17.3698V26.0589H35.1672V17.3698H32.4023V15.5371H39.9983V17.3698H37.2334Z" fill="white"/>
</svg>
