<svg width="41" height="40" viewBox="0 0 41 40" fill="none" xmlns="http://www.w3.org/2000/svg">
<g clip-path="url(#clip0_5219_13751)">
<path fill-rule="evenodd" clip-rule="evenodd" d="M20.5905 36.9329C15.5266 36.9291 11.4473 35.7323 8.59712 33.5826C5.71262 31.4071 4.18262 28.3197 4.18262 24.8263C4.18262 21.4603 5.70935 19.0331 7.437 17.3924C8.79082 16.1067 10.2848 15.2834 11.325 14.8096C11.0898 14.0985 10.7963 13.1677 10.5337 12.2061C10.1824 10.9196 9.83778 9.40994 9.83778 8.30383C9.83778 6.99457 10.1275 5.67951 10.909 4.6578C11.7347 3.57834 12.9776 3 14.4729 3C15.6416 3 16.6338 3.42696 17.4107 4.16352C18.1532 4.86744 18.6474 5.80252 18.9886 6.77725C19.5881 8.48989 19.8214 10.6416 19.887 12.7891H21.3193C21.3849 10.6416 21.6183 8.48989 22.2179 6.77725C22.5591 5.80252 23.0533 4.86761 23.7958 4.16352C24.5725 3.42714 25.5647 3 26.7334 3C28.2287 3 29.4717 3.57834 30.2974 4.6578C31.0788 5.67951 31.3687 6.99457 31.3687 8.30383C31.3687 9.40994 31.0241 10.9196 30.6726 12.2061C30.41 13.1677 30.1165 14.0985 29.8813 14.8096C30.9216 15.2834 32.4157 16.1067 33.7695 17.3926C35.497 19.0331 37.0239 21.4603 37.0239 24.8263C37.0239 28.3197 35.4937 31.4071 32.6094 33.5826C29.7592 35.7323 25.6799 36.9291 20.6159 36.9329H20.5905Z" fill="#633001"/>
<path d="M14.4737 4.24512C12.2836 4.24512 11.2753 5.87097 11.2753 8.11924C11.2753 9.90637 12.4467 13.4854 12.9274 14.8787C13.0356 15.1923 12.8656 15.5355 12.5558 15.657C10.8005 16.3457 5.62012 18.8672 5.62012 24.6419C5.62012 30.7248 10.8846 35.3114 20.5923 35.3186H20.6155C30.3233 35.3114 35.5875 30.7248 35.5875 24.6419C35.5875 18.8672 30.4073 16.3457 28.652 15.657C28.3422 15.5357 28.1722 15.1923 28.2804 14.8787C28.7611 13.4856 29.9325 9.90637 29.9325 8.11924C29.9325 5.8708 28.9244 4.24512 26.7341 4.24512C23.5814 4.24512 22.7956 8.68852 22.7395 13.4576C22.7357 13.7759 22.4771 14.0342 22.157 14.0342H19.0506C18.7307 14.0342 18.4719 13.7759 18.4683 13.4576C18.4124 8.68852 17.6264 4.24512 14.4737 4.24512Z" fill="#D1884F"/>
<path d="M20.6153 33.37C13.4825 33.37 5.63248 29.571 5.62012 24.6533V24.6762C5.62012 30.7641 10.8927 35.3531 20.6153 35.3531C30.3379 35.3531 35.6105 30.7641 35.6105 24.6762V24.6533C35.5982 29.571 27.7481 33.37 20.6153 33.37Z" fill="#FEDC90"/>
<path d="M16.6509 23.1432C16.6509 24.8036 15.8622 25.6683 14.8894 25.6683C13.9166 25.6683 13.1279 24.8036 13.1279 23.1432C13.1279 21.4829 13.9166 20.6182 14.8894 20.6182C15.8622 20.6182 16.6509 21.4829 16.6509 23.1432ZM28.0999 23.1432C28.0999 24.8036 27.3114 25.6683 26.3386 25.6683C25.3657 25.6683 24.5772 24.8036 24.5772 23.1432C24.5772 21.4829 25.3657 20.6182 26.3386 20.6182C27.3114 20.6182 28.0999 21.4829 28.0999 23.1432Z" fill="#633001"/>
</g>
<defs>
<clipPath id="clip0_5219_13751">
<rect width="34" height="34" fill="white" transform="translate(3.66699 3)"/>
</clipPath>
</defs>
</svg>
