<svg width="32" height="32" viewBox="0 0 32 32" fill="none" xmlns="http://www.w3.org/2000/svg">
<g clip-path="url(#clip0_28496_1501)">
<path d="M16 32C24.8366 32 32 24.8366 32 16C32 7.16344 24.8366 0 16 0C7.16344 0 0 7.16344 0 16C0 24.8366 7.16344 32 16 32Z" fill="#FF3D00"/>
<path fill-rule="evenodd" clip-rule="evenodd" d="M8 8.00117V14.3617L10.2844 16.6348V10.2743L16.6521 10.2955L14.3688 8.02123L8.00122 8L8 8.00117ZM19.5849 13.0886V18.8313L17.3005 16.5582V10.8154L19.5849 13.0886ZM13.2159 19.429H18.9843L16.7011 17.1547H10.9326L13.2159 19.429ZM22.8315 22.0346V16.3207L20.5471 14.0476V20.4082L14.1794 20.387L16.4627 22.6612L22.2211 22.6804L23.4355 23.8893L24.2131 24L24.065 23.2627L22.8315 22.0346Z" fill="white"/>
</g>
<defs>
<clipPath id="clip0_28496_1501">
<rect width="32" height="32" fill="white"/>
</clipPath>
</defs>
</svg>
