<svg width="48" height="48" viewBox="0 0 48 48" fill="none" xmlns="http://www.w3.org/2000/svg">
<g clip-path="url(#clip0_7287_14487)">
<path d="M24 48C37.2548 48 48 37.2548 48 24C48 10.7452 37.2548 0 24 0C10.7452 0 0 10.7452 0 24C0 37.2548 10.7452 48 24 48Z" fill="#EB0B2B"/>
<path d="M32.3485 13.8166L11.168 9.94116L22.313 37.8269L37.8448 19.0142L32.3485 13.8166ZM32.0068 15.526L35.2473 18.5869L26.3838 20.183L32.0068 15.526ZM24.4605 19.8616L15.1193 12.1601L30.3866 14.9525L24.4605 19.8616ZM23.7955 21.2259L22.2726 33.7433L14.0594 13.1975L23.7955 21.2259ZM25.2044 21.8888L35.0177 20.1228L23.7624 33.7579L25.2044 21.8888Z" fill="white"/>
</g>
<defs>
<clipPath id="clip0_7287_14487">
<rect width="48" height="48" fill="white"/>
</clipPath>
</defs>
</svg>
