<svg width="41" height="40" viewBox="0 0 41 40" fill="none" xmlns="http://www.w3.org/2000/svg">
<g clip-path="url(#clip0_5219_13791)">
<path d="M31.5951 6.06148C31.6475 5.11881 31.7728 4.49704 32.0247 3.92922C32.1244 3.70446 32.2178 3.52051 32.2322 3.52051C32.2466 3.52051 32.2033 3.68641 32.1359 3.88913C31.9527 4.44021 31.9227 5.19396 32.0489 6.0709C32.209 7.18359 32.3 7.34413 33.4525 8.54608C33.993 9.10984 34.6219 9.82085 34.8497 10.1261L35.2642 10.6812L34.8497 10.2845C34.343 9.79947 33.1773 8.85336 32.9198 8.71813C32.7472 8.62743 32.7215 8.629 32.615 8.73716C32.5169 8.83682 32.4962 8.98658 32.4826 9.69458C32.4614 10.7979 32.314 11.5062 31.9583 12.2143C31.7659 12.5973 31.7356 12.5156 31.9097 12.0832C32.0397 11.7605 32.0529 11.6185 32.0519 10.5504C32.0499 8.40424 31.8003 7.88828 30.3359 7.0044C29.965 6.78049 29.3537 6.45757 28.9777 6.28676C28.6016 6.11595 28.3029 5.96718 28.3138 5.95607C28.3553 5.91395 29.7833 6.33927 30.358 6.56489C31.213 6.90049 31.3541 6.94397 31.458 6.90349C31.5276 6.87636 31.5612 6.66951 31.5951 6.06148Z" fill="#F50DB4"/>
<path d="M13.5319 2.9396C13.0247 2.85946 13.0032 2.85006 13.2419 2.8127C13.6994 2.74106 14.7794 2.8387 15.5237 3.01895C17.2611 3.43961 18.8422 4.51722 20.5298 6.43106L20.9782 6.93949L21.6197 6.83447C24.3217 6.39219 27.0706 6.74369 29.3697 7.82548C30.0023 8.12309 30.9995 8.71552 31.1241 8.86776C31.1638 8.91628 31.2367 9.22862 31.286 9.5619C31.4568 10.7149 31.3713 11.5986 31.0251 12.2587C30.8367 12.6179 30.8262 12.7318 30.9528 13.0391C31.054 13.2845 31.3359 13.466 31.6151 13.4656C32.1864 13.4648 32.8013 12.5241 33.0863 11.2152L33.1995 10.6953L33.4238 10.954C34.6536 12.3732 35.6196 14.3087 35.7856 15.6864L35.8288 16.0456L35.622 15.719C35.2663 15.1572 34.9088 14.7746 34.451 14.4661C33.6258 13.91 32.7533 13.7207 30.4425 13.5967C28.3556 13.4847 27.1745 13.3031 26.0033 12.9142C24.0106 12.2524 23.006 11.3711 20.639 8.20806C19.5876 6.80312 18.9378 6.0258 18.2914 5.39981C16.8226 3.97743 15.3793 3.23147 13.5319 2.9396Z" fill="#F50DB4"/>
<path d="M14.5172 9.74337C13.4876 8.29953 12.8505 6.08585 12.9884 4.43104L13.031 3.91895L13.2654 3.9625C13.7055 4.04427 14.4644 4.33196 14.8197 4.55179C15.7949 5.15499 16.2171 5.94916 16.6466 7.98846C16.7724 8.58577 16.9374 9.26171 17.0134 9.49056C17.1357 9.85895 17.5977 10.7193 17.9733 11.2781C18.2439 11.6805 18.0642 11.8712 17.4661 11.8163C16.5527 11.7323 15.3154 10.8625 14.5172 9.74337Z" fill="#F50DB4"/>
<path d="M30.3475 20.4886C25.5356 18.5153 23.8408 16.8025 23.8408 13.9124C23.8408 13.4872 23.8552 13.1392 23.8728 13.1392C23.8902 13.1392 24.0764 13.2795 24.2864 13.4511C25.2622 14.2482 26.3548 14.5887 29.3797 15.0381C31.1597 15.3027 32.1613 15.5163 33.0854 15.8284C36.0223 16.8205 37.8393 18.8336 38.2727 21.5758C38.3986 22.3726 38.3248 23.8668 38.1207 24.6544C37.9595 25.2763 37.4676 26.3975 37.3372 26.4405C37.301 26.4524 37.2656 26.3112 37.2563 26.1192C37.2068 25.0895 36.696 24.0871 35.838 23.3361C34.8625 22.4824 33.5519 21.8027 30.3475 20.4886Z" fill="#F50DB4"/>
<path d="M26.9667 21.308C26.9064 20.9427 26.8019 20.476 26.7344 20.2711L26.6115 19.8984L26.8396 20.1592C27.1552 20.52 27.4046 20.9817 27.6159 21.5965C27.7773 22.0658 27.7954 22.2054 27.7942 22.968C27.793 23.7168 27.7728 23.8736 27.6239 24.2961C27.389 24.9622 27.0975 25.4345 26.6083 25.9415C25.7294 26.8526 24.5993 27.3571 22.9685 27.5664C22.685 27.6027 21.8588 27.664 21.1325 27.7024C19.302 27.7994 18.0973 27.9997 17.0147 28.3868C16.859 28.4426 16.7201 28.4764 16.706 28.462C16.6622 28.4176 17.3992 27.9701 18.008 27.6714C18.8664 27.2502 19.721 27.0205 21.6355 26.6957C22.5812 26.5352 23.5579 26.3406 23.806 26.2631C26.1481 25.5318 27.3521 23.6443 26.9667 21.308Z" fill="#F50DB4"/>
<path d="M29.1729 25.2981C28.5337 23.8984 28.3868 22.5468 28.7371 21.2864C28.7746 21.1517 28.8348 21.0415 28.8711 21.0415C28.9073 21.0415 29.0582 21.1245 29.2062 21.2261C29.5009 21.428 30.0917 21.7683 31.6659 22.6424C33.6303 23.7332 34.7502 24.5779 35.5118 25.5429C36.1788 26.388 36.5916 27.3505 36.7903 28.5243C36.9028 29.1892 36.8369 30.7889 36.6693 31.4584C36.1412 33.5693 34.9138 35.2275 33.163 36.1951C32.9065 36.3368 32.6762 36.4532 32.6513 36.4537C32.6263 36.4542 32.7198 36.2122 32.859 35.9158C33.4479 34.6619 33.515 33.4422 33.0698 32.0845C32.7971 31.2532 32.2412 30.2389 31.1188 28.5245C29.8139 26.5315 29.494 26.001 29.1729 25.2981Z" fill="#F50DB4"/>
<path d="M11.099 32.8508C12.8846 31.3152 15.1064 30.2243 17.1302 29.8894C18.0024 29.7451 19.4554 29.8024 20.263 30.0129C21.5577 30.3503 22.7158 31.1062 23.3181 32.0067C23.9067 32.8868 24.1592 33.6538 24.4221 35.3602C24.5259 36.0333 24.6386 36.7092 24.6728 36.8623C24.8702 37.7467 25.2544 38.4536 25.7306 38.8086C26.4869 39.3724 27.7891 39.4074 29.0701 38.8985C29.2875 38.812 29.4762 38.7524 29.4896 38.7658C29.536 38.8128 28.891 39.2527 28.4358 39.4842C27.8236 39.7957 27.3367 39.9161 26.6897 39.9161C25.5164 39.9161 24.5423 39.3082 23.7296 38.0687C23.5696 37.8247 23.2101 37.094 22.9306 36.445C22.0725 34.4515 21.6488 33.8442 20.6523 33.1795C19.7852 32.6011 18.6669 32.4975 17.8256 32.9177C16.7205 33.4696 16.4122 34.908 17.2037 35.8195C17.5182 36.1818 18.1048 36.4943 18.5845 36.555C19.4819 36.6687 20.2531 35.9734 20.2531 35.0505C20.2531 34.4514 20.027 34.1094 19.4578 33.8478C18.6804 33.4904 17.8446 33.9081 17.8487 34.652C17.8504 34.9692 17.986 35.1684 18.2982 35.3123C18.4985 35.4045 18.5032 35.4119 18.3398 35.3774C17.6265 35.2267 17.4593 34.3508 18.0329 33.7693C18.7215 33.0713 20.1454 33.3793 20.6344 34.3321C20.8398 34.7324 20.8637 35.5294 20.6846 36.0107C20.2837 37.088 19.115 37.6545 17.9294 37.3462C17.1222 37.1363 16.7935 36.9091 15.8203 35.888C14.1292 34.1138 13.4726 33.77 11.0346 33.3822L10.5674 33.308L11.099 32.8508Z" fill="#F50DB4"/>
<path fill-rule="evenodd" clip-rule="evenodd" d="M3.16474 1.09497C8.81235 8.07645 12.7022 10.9569 13.1344 11.5655C13.4913 12.068 13.357 12.5197 12.7456 12.8738C12.4055 13.0705 11.7065 13.27 11.3565 13.27C10.9606 13.27 10.8247 13.1145 10.8247 13.1145C10.5952 12.8927 10.4659 12.9315 9.28717 10.8005C7.65073 8.21423 6.28124 6.0688 6.24389 6.03288C6.1575 5.9498 6.15898 5.95261 9.12032 11.3493C9.59879 12.4741 9.21549 12.887 9.21549 13.0472C9.21549 13.3731 9.1282 13.5444 8.73348 13.9928C8.07549 14.7406 7.78134 15.5806 7.569 17.3192C7.33096 19.2682 6.66162 20.6449 4.80666 23.0011C3.72083 24.3805 3.54315 24.6333 3.26917 25.1891C2.92406 25.8892 2.82917 26.2813 2.79071 27.1654C2.75006 28.1 2.82923 28.7038 3.10959 29.5974C3.35504 30.3798 3.61124 30.8964 4.26622 31.9297C4.83145 32.8213 5.15692 33.484 5.15692 33.7432C5.15692 33.9494 5.19557 33.9497 6.07146 33.7482C8.16755 33.2662 9.86956 32.4183 10.8268 31.3792C11.4192 30.736 11.5583 30.3808 11.5629 29.4995C11.5658 28.923 11.5459 28.8023 11.3929 28.4706C11.1438 27.9309 10.6904 27.482 9.69112 26.7863C8.38175 25.8746 7.8225 25.1407 7.66802 24.1313C7.5413 23.3031 7.68831 22.7187 8.41267 21.1725C9.16241 19.5719 9.3482 18.8899 9.47389 17.2766C9.55506 16.2344 9.66748 15.8233 9.9615 15.4934C10.2681 15.1493 10.5442 15.0328 11.3031 14.9272C12.5403 14.755 13.3281 14.429 13.9757 13.8212C14.5375 13.294 14.7725 12.7859 14.8086 12.0211L14.836 11.4415L14.5221 11.0687C13.3852 9.71864 2.4034 0.0336914 2.33344 0.0336914C2.31849 0.0336914 2.6926 0.511301 3.16474 1.09497ZM5.79508 28.223C6.05212 27.7593 5.91556 27.1632 5.4856 26.8721C5.07936 26.5969 4.44828 26.7265 4.44828 27.085C4.44828 27.1944 4.50768 27.274 4.64154 27.3443C4.86696 27.4624 4.88332 27.5952 4.70597 27.8667C4.52635 28.1417 4.54085 28.3834 4.74687 28.5478C5.0789 28.8126 5.54892 28.6669 5.79508 28.223Z" fill="#F50DB4"/>
<path fill-rule="evenodd" clip-rule="evenodd" d="M15.6168 15.2311C15.036 15.4127 14.4714 16.0397 14.2966 16.6972C14.19 17.0982 14.2505 17.8018 14.4102 18.019C14.6682 18.37 14.9177 18.4624 15.5933 18.4575C16.916 18.4481 18.0659 17.8703 18.1995 17.148C18.3092 16.556 17.8042 15.7354 17.1086 15.3751C16.7495 15.1893 15.9862 15.1156 15.6168 15.2311ZM17.1631 16.4626C17.367 16.1674 17.2778 15.8483 16.9309 15.6325C16.2703 15.2217 15.2712 15.5617 15.2712 16.1973C15.2712 16.5137 15.7922 16.859 16.2698 16.859C16.5876 16.859 17.0226 16.6659 17.1631 16.4626Z" fill="#F50DB4"/>
</g>
<defs>
<clipPath id="clip0_5219_13791">
<rect width="36" height="40" fill="white" transform="translate(2.33301)"/>
</clipPath>
</defs>
</svg>
